<svg xmlns="http://www.w3.org/2000/svg" width="548" height="258" viewBox="0 0 548 258"><g fill="none" fill-rule="evenodd"><path fill="#FFF" stroke="#979797" d="M1 81h125v63H1z"/><text fill="#000" font-family="Arial-BoldMT, Arial" font-size="20" font-weight="bold" letter-spacing="1.429" transform="translate(1 1)"><tspan x="22.591" y="118">Cinéma</tspan></text><path fill="#FFF" stroke="#979797" d="M449 81h98v63h-98zm-276 0h234v63H173z"/><text fill="#000" font-family="Arial-BoldMT, Arial" font-size="20" font-weight="bold" letter-spacing="1.429" transform="translate(1 1)"><tspan x="473.086" y="118">Film</tspan></text><text fill="#000" font-family="Arial-BoldMT, Arial" font-size="20" font-weight="bold" letter-spacing="1.429" transform="translate(1 1)"><tspan x="215.609" y="118">Film à l’affiche</tspan></text><path stroke="#979797" stroke-linecap="square" d="M126.5 113.5h47m275 0h-41"/><path fill="#FFF" stroke="#979797" d="M173 161h234v63H173z"/><text fill="#000" font-family="Arial-BoldMT, Arial" font-size="20" font-weight="bold" letter-spacing="1.429" transform="translate(1 1)"><tspan x="215.609" y="198">Film à l’affiche</tspan></text><text fill="#000" font-family="Arial-BoldMT, Arial" font-size="20" font-weight="bold" letter-spacing="1.429" transform="translate(1 1)"><tspan x="269.786" y="257">…</tspan></text><path stroke="#979797" stroke-linecap="square" d="M126.5 124.5l47 69m276-69l-42 69"/><path fill="#FFF" stroke="#979797" d="M173 1h234v63H173z"/><text fill="#000" font-family="Arial-BoldMT, Arial" font-size="20" font-weight="bold" letter-spacing="1.429" transform="translate(1 1)"><tspan x="215.609" y="38">Film à l’affiche</tspan></text><path stroke="#979797" stroke-linecap="square" d="M126.5 100.5l47-67m275 67l-41-67"/></g></svg>